<svg version="1.1" xmlns="http://www.w3.org/2000/svg" xmlns:xlink="http://www.w3.org/1999/xlink" width="960" height="720" viewBox="0,0,960,720"><defs><clipPath id="clip-1"><path d="M-240,-180h960v720h-960z" fill="none" fill-rule="nonzero" stroke="none" stroke-width="1" stroke-linecap="square"/></clipPath></defs><g transform="translate(240,180)"><g clip-path="url(#clip-1)" data-paper-data="{&quot;isPaintingLayer&quot;:true}" stroke-linejoin="miter" stroke-miterlimit="10" stroke-dasharray="" stroke-dashoffset="0" style="mix-blend-mode: normal"><g fill="#00e617" fill-rule="nonzero" stroke="#000000" stroke-width="5" stroke-linecap="butt"><path d="M184.49637,234.84182v-109.66667h109.66667v109.66667z"/><path d="M142.74174,234.5c0,-23.10391 18.72942,-41.83333 41.83334,-41.83333c23.10391,0 41.83333,18.72942 41.83333,41.83333c0,23.10391 -18.72942,41.83333 -41.83333,41.83333c-23.10391,0 -41.83334,-18.72942 -41.83334,-41.83333z"/><path d="M253.74174,234.5c0,-23.10391 18.72943,-41.83333 41.83334,-41.83333c23.10391,0 41.83333,18.72942 41.83333,41.83333c0,23.10391 -18.72942,41.83333 -41.83333,41.83333c-23.10391,0 -41.83334,-18.72942 -41.83334,-41.83333z"/><path d="M253.74174,125.5c0,-23.10391 18.72943,-41.83333 41.83334,-41.83333c23.10391,0 41.83333,18.72942 41.83333,41.83333c0,23.10391 -18.72942,41.83334 -41.83333,41.83334c-23.10391,0 -41.83334,-18.72943 -41.83334,-41.83334z"/><path d="M142.68911,125.5c0,-23.10391 18.72943,-41.83333 41.83334,-41.83333c23.10391,0 41.83333,18.72942 41.83333,41.83333c0,23.10391 -18.72942,41.83334 -41.83333,41.83334c-23.10391,0 -41.83334,-18.72943 -41.83334,-41.83334z"/><path d="M179.34118,275.72449v-53.15789h122.10526v53.15789z"/><path d="M179.34118,137.0326v-53.1579h122.10526v53.1579z"/><path d="M283.81487,124.40102h53.1579v115.26316h-53.15789z"/><path d="M142.5916,122.2468h53.1579v116.29131h-53.15789z"/></g><g fill="#00e617" fill-rule="nonzero" stroke="none" stroke-width="0" stroke-linecap="butt"><path d="M184.49637,234.84182v-109.66667h109.66667v109.66667z"/><path d="M142.74174,234.5c0,-23.10391 18.72942,-41.83333 41.83334,-41.83333c23.10391,0 41.83333,18.72942 41.83333,41.83333c0,23.10391 -18.72942,41.83333 -41.83333,41.83333c-23.10391,0 -41.83334,-18.72942 -41.83334,-41.83333z"/><path d="M253.74174,234.5c0,-23.10391 18.72943,-41.83333 41.83334,-41.83333c23.10391,0 41.83333,18.72942 41.83333,41.83333c0,23.10391 -18.72942,41.83333 -41.83333,41.83333c-23.10391,0 -41.83334,-18.72942 -41.83334,-41.83333z"/><path d="M253.74174,125.5c0,-23.10391 18.72943,-41.83333 41.83334,-41.83333c23.10391,0 41.83333,18.72942 41.83333,41.83333c0,23.10391 -18.72942,41.83334 -41.83333,41.83334c-23.10391,0 -41.83334,-18.72943 -41.83334,-41.83334z"/><path d="M142.68911,125.5c0,-23.10391 18.72943,-41.83333 41.83334,-41.83333c23.10391,0 41.83333,18.72942 41.83333,41.83333c0,23.10391 -18.72942,41.83334 -41.83333,41.83334c-23.10391,0 -41.83334,-18.72943 -41.83334,-41.83334z"/><path d="M179.34118,276.15775v-53.15789h122.10526v53.15789z"/><path d="M179.34118,137.0326v-53.1579h122.10526v53.1579z"/><path d="M283.81487,124.40102h53.1579v115.26316h-53.15789z"/><path d="M142.5916,122.2468h53.1579v116.29131h-53.15789z"/></g><path d="M-240,-180h960v720h-960z" fill-opacity="0" fill="#000000" fill-rule="evenodd" stroke="none" stroke-width="1" stroke-linecap="square"/><path d="M150,49.10236h180v261.7953h-180z" fill-opacity="0" fill="#000000" fill-rule="evenodd" stroke="none" stroke-width="1" stroke-linecap="square"/><path d="M169.99364,244.79664c0,0 10.20619,-14.48313 16.39389,-31.06555c2.9547,-7.9183 59.52057,37.90823 63.53803,24.36367c2.44909,-8.25695 30.82389,-20.47189 23.72442,-39.28006c-4.95906,-13.13773 -30.34485,-17.87228 -42.95412,-29.93975c-14.74434,-14.11081 -16.55657,-34.57487 -16.55657,-34.57487c0,0 19.01748,-8.82353 33.14967,-8.82353c8.97899,0 25.78028,12.48784 40.58122,14.52425c8.64756,1.18979 19.71902,-27.05536 21.92732,-24.8316c5.9588,6.00051 26.90739,36.30851 26.90739,36.30851c0,0 -0.03413,67.89811 0.95957,80.54605c0.63458,8.07698 -3.59707,19.34095 -7.40406,25.00242c-0.67529,1.00424 -9.65905,16.39962 -28.65862,18.36305c-35.56304,3.67511 -102.11957,0.22699 -102.11957,0.22699z" fill="#00a611" fill-rule="nonzero" stroke="#000000" stroke-width="1" stroke-linecap="butt"/><path d="M243,112.39844c7.46875,0 14.36979,0.90104 20.70312,2.70313c6.33334,1.80209 12.76563,4.63541 19.29688,8.5l4.60938,-3.79687c3.19792,-2.53125 5.82813,-4.26041 7.89063,-5.1875c2.07292,-0.9375 4.44271,-1.40625 7.10938,-1.40625c3.19792,0 5.72917,0.69791 7.59375,2.09375c1.86459,1.39584 2.79688,3.42709 2.79688,6.09375c0,1.07291 -0.19791,2.20834 -0.59375,3.40625l-8.40625,27.59375c-0.92708,3.20834 -2.09375,5.47916 -3.5,6.8125c-1.39583,1.33334 -3.49479,2 -6.29687,2c-2.9375,0 -5.50521,-0.90104 -7.70312,-2.70312c-2.19791,-1.80209 -5.63021,-5.50521 -10.29687,-11.10937c-4.66666,-5.33334 -8.90104,-9.09896 -12.70312,-11.29687c-3.80208,-2.19791 -7.70312,-3.29687 -11.70312,-3.29687c-2.92709,0 -5.39062,0.96875 -7.39062,2.90625c-2,1.92709 -3,4.29166 -3,7.09375c0,3.19791 1.59896,6.16666 4.79688,8.90625c3.19791,2.72916 8.19791,6.16146 15,10.29688c6.9375,4.13541 12.67188,7.86979 17.20313,11.20313c4.53125,3.33334 8.39584,7.46875 11.59375,12.40625c3.19792,4.92709 4.79688,10.58854 4.79688,16.98438c0,4.13541 -0.66666,8.27084 -2,12.40625c-3.19791,10.66666 -9.39583,18.76563 -18.59375,24.29688c-9.19791,5.53125 -19.93229,8.29688 -32.20312,8.29688c-9.19791,0 -16.93229,-1.0625 -23.20312,-3.1875c-6.26041,-2.13541 -12.65625,-5.73959 -19.1875,-10.8125l-7.20312,6c-3.33334,2.80209 -6.06771,4.70313 -8.20312,5.70313c-2.13541,1 -4.53646,1.5 -7.20312,1.5c-3.0625,0 -5.49479,-0.73437 -7.29687,-2.20312c-1.80209,-1.46875 -2.70312,-3.46875 -2.70312,-6c0,-1.33334 0.26563,-2.73437 0.79688,-4.20312l9.8125,-29.79687c1.0625,-3.46875 2.52604,-5.93229 4.39063,-7.39062c1.86459,-1.46875 4.26563,-2.20312 7.20313,-2.20312c3.0625,0 5.82813,1.06771 8.29688,3.20313c2.46875,2.125 5.70313,5.98959 9.70313,11.59375c4.27084,6.13541 8.23959,10.40625 11.90625,12.8125c3.66666,2.39584 8.03125,3.59375 13.09375,3.59375c3.60416,0 6.36979,-0.56771 8.29688,-1.70312c1.9375,-1.13541 3.30729,-2.96875 4.10938,-5.5c0.26041,-0.66666 0.39063,-1.66666 0.39063,-3c0,-3.19791 -1.53646,-6.13021 -4.60937,-8.79687c-3.0625,-2.66666 -7.79166,-5.86979 -14.1875,-9.60937c-6.80209,-4.13541 -12.33854,-7.83334 -16.60937,-11.09375c-4.26041,-3.27084 -7.95834,-7.36979 -11.09375,-12.29687c-3.13541,-4.9375 -4.70312,-10.73959 -4.70312,-17.40625c0,-4.66666 0.73438,-9.26562 2.20313,-13.79687c2.80209,-9.19791 8.53646,-16.59896 17.20313,-22.20312c8.66666,-5.60416 18.59896,-8.40625 29.79688,-8.40625z" fill="#ffffff" fill-rule="nonzero" stroke="#000000" stroke-width="1" stroke-linecap="square"/></g></g></svg>