<svg version="1.1" xmlns="http://www.w3.org/2000/svg" xmlns:xlink="http://www.w3.org/1999/xlink" width="191.79134" height="64.59294" viewBox="0,0,191.79134,64.59294"><g transform="translate(-144.10433,-147.70353)"><g data-paper-data="{&quot;isPaintingLayer&quot;:true}" fill-rule="nonzero" stroke="none" stroke-linecap="butt" stroke-linejoin="miter" stroke-miterlimit="10" stroke-dasharray="" stroke-dashoffset="0" style="mix-blend-mode: normal"><g stroke-width="1"><path d="M210.87808,180c0,0 0,8.34598 -1.07232,12.34378c-0.59092,2.20784 -2.32612,3.94288 -4.53396,4.53378c-3.99762,1.07232 -20.03532,1.07232 -20.03532,1.07232c0,0 -16.03748,0 -20.03527,-1.07232c-2.20784,-0.59092 -3.94289,-2.32594 -4.53391,-4.53378c-1.07226,-3.9978 -1.07226,-12.34378 -1.07226,-12.34378c0,0 0,-8.34594 1.07226,-12.34372c0.59101,-2.20785 2.32607,-3.94292 4.53391,-4.53392c3.99779,-1.07226 20.03527,-1.07226 20.03527,-1.07226c0,0 16.0377,0 20.03532,1.07226c2.20784,0.59101 3.94306,2.32607 4.53396,4.53392c1.06802,3.99776 1.07232,12.34372 1.07232,12.34372z" fill="#ff0000"/><path d="M180.10333,172.30907l13.32314,7.69165l-13.32314,7.69154z" fill="#ffffff"/></g><g fill="#212121" stroke-width="1"><path d="M221.706,185.39144l-5.75814,-20.79522h5.02364l2.01792,9.42664c0.51498,2.32183 0.89068,4.30172 1.13552,5.93967h0.14772c0.1689,-1.17359 0.5489,-3.1408 1.1357,-5.90589l2.08954,-9.46042h5.02364l-5.82994,20.79522v9.97548h-4.98972v-9.97548z"/><path d="M234.03274,194.70761c-1.0131,-0.6839 -1.73504,-1.74778 -2.16566,-3.1915c-0.42632,-1.44372 -0.64152,-3.36022 -0.64152,-5.75814v-3.2633c0,-2.41892 0.24484,-4.36497 0.7345,-5.82984c0.48968,-1.46486 1.2538,-2.53713 2.2922,-3.20835c1.03858,-0.67122 2.40206,-1.00895 4.09078,-1.00895c1.66324,0 2.99296,0.34194 3.99762,1.02584c1.00052,0.68387 1.73504,1.75614 2.1994,3.20835c0.46436,1.45642 0.69664,3.39403 0.69664,5.81295v3.2633c0,2.39792 -0.22796,4.32288 -0.67958,5.77502c-0.4518,1.45646 -1.1863,2.52034 -2.19958,3.1915c-1.0131,0.67132 -2.38932,1.00896 -4.12434,1.00896c-1.78996,0.00412 -3.18718,-0.34194 -4.20046,-1.02584zM239.71496,191.18692c0.27858,-0.7345 0.42218,-1.92926 0.42218,-3.5925v-7.00352c0,-1.61267 -0.1393,-2.79471 -0.42218,-3.53769c-0.2829,-0.74721 -0.7767,-1.11869 -1.48608,-1.11869c-0.68372,0 -1.16926,0.3715 -1.44784,1.11869c-0.2829,0.74722 -0.42218,1.92502 -0.42218,3.53769v7.00352c0,1.66324 0.13498,2.86212 0.4053,3.5925c0.27014,0.7345 0.75552,1.10176 1.46472,1.10176c0.70938,0 1.20318,-0.36726 1.48608,-1.10176z"/><path d="M261.57812,195.37122h-3.95974l-0.43906,-2.75244h-0.10968c-1.07664,2.07698 -2.68926,3.11538 -4.84216,3.11538c-1.4902,0 -2.59196,-0.48968 -3.30116,-1.46472c-0.7092,-0.97952 -1.0639,-2.5076 -1.0639,-4.58458v-16.79749h5.0617v16.50187c0,1.00484 0.10968,1.71816 0.3292,2.14466c0.21952,0.42632 0.58678,0.64152 1.10176,0.64152c0.43906,0 0.86124,-0.13498 1.26654,-0.40512c0.4053,-0.27032 0.70076,-0.61228 0.89912,-1.02584v-17.8613h5.05738z"/><path d="M275.32792,168.66926h-5.02364v26.70106h-4.95184v-26.70106h-5.02364v-4.06955h14.99912z"/><path d="M287.53618,195.37122h-3.95974l-0.43906,-2.75244h-0.10968c-1.07646,2.07698 -2.68908,3.11538 -4.84216,3.11538c-1.4902,0 -2.59196,-0.48968 -3.30116,-1.46472c-0.7092,-0.97952 -1.0639,-2.5076 -1.0639,-4.58458v-16.79749h5.0617v16.50187c0,1.00484 0.10968,1.71816 0.3292,2.14466c0.21952,0.42632 0.58678,0.64152 1.10194,0.64152c0.43888,0 0.86106,-0.13498 1.26636,-0.40512c0.4053,-0.27032 0.70076,-0.61228 0.89912,-1.02584v-17.8613h5.05738z"/><path d="M304.74744,182.38124v3.55874c0,3.35178 -0.40512,5.8129 -1.21144,7.39176c-0.8063,1.57474 -2.06854,2.36418 -3.77828,2.36418c-0.95404,0 -1.8237,-0.21952 -2.60472,-0.65858c-0.781,-0.44336 -1.36778,-1.03858 -1.76034,-1.7984h-0.10986l-0.51498,2.1276h-4.17928v-31.90624h4.87592v11.84559h0.03788c0.43906,-0.85696 1.0639,-1.54507 1.8702,-2.07277c0.8063,-0.5277 1.67598,-0.78941 2.60472,-0.78941c1.19888,0 2.14034,0.31661 2.82424,0.95405c0.68372,0.63745 1.1777,1.66329 1.4859,3.08172c0.3039,1.41844 0.46006,3.38988 0.46006,5.90174zM299.64375,185.65278v-2.90016c0,-1.76034 -0.05492,-3.11543 -0.1646,-4.0695c-0.10986,-0.95405 -0.30408,-1.62951 -0.58678,-2.03476c-0.27876,-0.40105 -0.67546,-0.6037 -1.19062,-0.6037c-0.48536,0 -0.9413,0.19419 -1.35504,0.58681c-0.41788,0.3926 -0.7135,0.89073 -0.88224,1.50285v12.76162c0.21952,0.38844 0.50654,0.6839 0.86106,0.8781c0.3547,0.19834 0.73882,0.29546 1.1567,0.29546c0.53616,0 0.96678,-0.19422 1.28342,-0.58678c0.32076,-0.38826 0.5446,-1.05114 0.67958,-1.97988c0.13516,-0.92872 0.20266,-2.21214 0.20266,-3.85008z"/><path d="M311.92812,186.94876c0,1.44372 0.04218,2.52448 0.12672,3.24642c0.08436,0.72176 0.2617,1.24536 0.53186,1.57888c0.27014,0.3292 0.6839,0.4938 1.24536,0.4938c0.7557,0 1.2791,-0.29546 1.5577,-0.88224c0.2829,-0.58678 0.43492,-1.56612 0.46024,-2.93392l4.36506,0.2574c0.0253,0.19422 0.03788,0.46436 0.03788,0.8063c0,2.07698 -0.5699,3.63054 -1.70542,4.65638c-1.13552,1.02584 -2.744,1.54082 -4.82098,1.54082c-2.49486,0 -4.24264,-0.781 -5.24316,-2.34712c-1.00466,-1.56612 -1.50276,-3.98506 -1.50276,-7.2611v-3.926c0,-3.37292 0.5193,-5.83829 1.5577,-7.3918c1.03858,-1.55352 2.8158,-2.3303 5.33596,-2.3303c1.73504,0 3.06908,0.31661 3.9978,0.95408c0.92872,0.63744 1.583,1.62527 1.963,2.97195c0.38,1.34665 0.5699,3.20412 0.5699,5.57655v3.85008h-8.47684zM312.56984,176.35277c-0.25758,0.3166 -0.42632,0.83586 -0.51498,1.55772c-0.08454,0.72189 -0.12672,1.81525 -0.12672,3.28441v1.61262h3.70234v-1.61262c0,-1.44383 -0.05062,-2.53721 -0.14772,-3.28441c-0.0971,-0.74721 -0.27446,-1.27068 -0.53204,-1.57884c-0.2574,-0.30395 -0.65428,-0.46015 -1.19044,-0.46015c-0.5403,0.00421 -0.93716,0.16464 -1.19044,0.48125z"/></g><path d="M144.10433,212.29647v-64.59294h191.79134v64.59294z" fill="none" stroke-width="0"/></g></g></svg>